<svg width="17" height="19" viewBox="0 0 17 19" fill="none" xmlns="http://www.w3.org/2000/svg">
<path d="M14.3563 2.37374C12.8918 0.908401 10.8614 -0.000556385 8.6255 2.55517e-07C6.39015 -0.000556385 4.35948 0.908401 2.89522 2.37374C1.42989 3.838 0.520965 5.8687 0.521485 8.10402C0.520965 10.2221 1.33737 12.1567 2.66941 13.5982C3.85495 14.8825 5.45492 15.7819 7.25569 16.0889V18.2631C7.25569 18.5498 7.42153 18.81 7.68126 18.9311C7.94102 19.0521 8.24743 19.0114 8.46645 18.8271L13.8371 14.3103L13.8358 14.3112C14.8511 13.4622 15.5888 12.5245 16.0591 11.4836C16.5308 10.443 16.7303 9.31505 16.7295 8.10402C16.7301 5.8687 15.8214 3.838 14.3563 2.37374ZM14.717 10.8759C14.3457 11.6934 13.7685 12.4444 12.8899 13.1815L12.8888 13.1826L8.72919 16.6808V15.4424C8.72919 15.06 8.4358 14.7405 8.05502 14.7082C6.3576 14.5635 4.8445 13.7808 3.75208 12.5985C2.66047 11.4152 1.99551 9.84103 1.99499 8.10402C1.99551 6.27067 2.73621 4.61778 3.93722 3.4154C5.13923 2.21439 6.79241 1.47376 8.6255 1.47347C10.4589 1.47376 12.1117 2.21439 13.3141 3.4154C14.5154 4.61774 15.2555 6.27067 15.256 8.10402C15.2555 9.15789 15.0867 10.0576 14.717 10.8759Z" fill="#848789"/>
<path d="M4.7579 7.12109C4.21536 7.12109 3.77539 7.56106 3.77539 8.1036C3.77539 8.64614 4.21536 9.08611 4.7579 9.08611C5.30018 9.08611 5.74015 8.64614 5.74015 8.1036C5.74015 7.56106 5.30021 7.12109 4.7579 7.12109Z" fill="#848789"/>
<path d="M8.62483 7.12109C8.08255 7.12109 7.64258 7.56106 7.64258 8.1036C7.64258 8.64614 8.08255 9.08611 8.62483 9.08611C9.16736 9.08611 9.60733 8.64614 9.60733 8.1036C9.60733 7.56106 9.16736 7.12109 8.62483 7.12109Z" fill="#848789"/>
<path d="M12.494 7.12109C11.9514 7.12109 11.5117 7.56106 11.5117 8.1036C11.5117 8.64614 11.9514 9.08611 12.494 9.08611C13.0365 9.08611 13.4765 8.64614 13.4765 8.1036C13.4765 7.56106 13.0365 7.12109 12.494 7.12109Z" fill="#848789"/>
</svg>
