<svg width="22" height="22" viewBox="0 0 22 22" fill="none" xmlns="http://www.w3.org/2000/svg">
<path d="M11 0.4375C5.16625 0.4375 0.4375 5.16625 0.4375 11C0.4375 16.8337 5.16625 21.5625 11 21.5625C16.8337 21.5625 21.5625 16.8337 21.5625 11C21.5625 5.16625 16.8337 0.4375 11 0.4375ZM16.8971 7.99944L9.18975 15.706C8.99638 15.8986 8.68356 15.8986 8.49019 15.706L8.335 15.5508L8.33419 15.5516L4.09375 11.2811C3.90037 11.0878 3.90037 10.7741 4.09375 10.5808L5.14512 9.53019C5.3385 9.33681 5.65212 9.33681 5.8455 9.53019L8.84281 12.5494L15.1446 6.24769C15.3379 6.05431 15.6516 6.05431 15.8449 6.24769L16.8963 7.29906C17.0905 7.49162 17.0905 7.80525 16.8971 7.99944Z" fill="#04D200"/>
</svg>
