<svg width="216" height="37" viewBox="0 0 216 37" fill="none" xmlns="http://www.w3.org/2000/svg">
<path d="M51.1203 22.2925C50.5896 22.9416 49.8315 23.2891 48.943 23.2891C47.7452 23.2891 46.9022 22.8502 45.6589 21.5276C43.4482 21.2503 41.8926 19.5711 41.8926 17.3708C41.8926 14.9632 43.7575 13.1804 46.3048 13.1804C48.852 13.1804 50.717 14.951 50.717 17.3708C50.717 19.2694 49.5525 20.7749 47.8361 21.3295C48.2273 21.747 48.573 21.8963 48.9763 21.8963C49.4706 21.8963 49.9103 21.6983 50.2894 21.2929L51.1203 22.2895V22.2925ZM46.3048 19.9642C47.7452 19.9642 48.8277 18.9098 48.8277 17.3708C48.8277 15.8318 47.7452 14.7773 46.3048 14.7773C44.8644 14.7773 43.7818 15.8318 43.7818 17.3708C43.7818 18.9098 44.8644 19.9642 46.3048 19.9642Z" fill="black"/>
<path d="M52.0586 17.8586V13.3208H53.9235V17.7915C53.9235 19.3305 54.5907 19.9675 55.7218 19.9675C56.8529 19.9675 57.52 19.3305 57.52 17.7915V13.3208H59.3637V17.8586C59.3637 20.2448 58.0052 21.5644 55.7127 21.5644C53.4202 21.5644 52.0616 20.2448 52.0616 17.8586H52.0586Z" fill="black"/>
<path d="M66.3429 19.687H62.5979L61.8822 21.424H59.9688L63.5622 13.3176H65.4059L69.0115 21.424H67.0525L66.3369 19.687H66.3429ZM65.7546 18.2638L64.4749 15.1614L63.1953 18.2638H65.7546Z" fill="black"/>
<path d="M69.8613 13.3177H71.7293V19.8943H75.7746V21.4211H69.8644V13.3147L69.8613 13.3177Z" fill="black"/>
<path d="M76.8203 13.3176H78.6883V21.424H76.8203V13.3176Z" fill="black"/>
<path d="M82.27 14.8475H79.6895V13.3176H86.7186V14.8475H84.138V21.424H82.27V14.8475Z" fill="black"/>
<path d="M92.6281 19.687H88.883L88.1674 21.4241H86.2539L89.8473 13.3177H91.6911L95.2966 21.4241H93.3377L92.622 19.687H92.6281ZM88.8042 11.8031C88.8042 11.3277 89.162 11.0046 89.6108 11.0046C90.0596 11.0046 90.4053 11.3277 90.4053 11.8031C90.4053 12.2785 90.0596 12.6015 89.6108 12.6015C89.162 12.6015 88.8042 12.2785 88.8042 11.8031ZM92.0428 18.2638L90.7631 15.1615L89.4834 18.2638H92.0398H92.0428ZM91.1452 11.8031C91.1452 11.3277 91.4909 11.0046 91.9397 11.0046C92.3885 11.0046 92.7463 11.3277 92.7463 11.8031C92.7463 12.2785 92.3885 12.6015 91.9397 12.6015C91.4909 12.6015 91.1452 12.2785 91.1452 11.8031Z" fill="black"/>
<path d="M97.4107 14.8475H94.8301V13.3176H101.859V14.8475H99.2787V21.424H97.4107V14.8475Z" fill="black"/>
<path d="M102.172 20.6255L102.806 19.2145C103.485 19.7113 104.498 20.0587 105.468 20.0587C106.575 20.0587 107.024 19.6869 107.024 19.1901C107.024 17.6725 102.336 18.7147 102.336 15.7038C102.336 14.3263 103.442 13.1804 105.735 13.1804C106.748 13.1804 107.785 13.4242 108.534 13.8996L107.958 15.3228C107.209 14.8931 106.439 14.6859 105.723 14.6859C104.616 14.6859 104.191 15.1034 104.191 15.6123C104.191 17.1056 108.88 16.0756 108.88 19.05C108.88 20.4061 107.761 21.5642 105.459 21.5642C104.179 21.5642 102.891 21.1832 102.175 20.6255H102.172Z" fill="black"/>
<path d="M113.095 18.2395L112.012 19.3732V21.4211H110.156V13.3147H112.012V17.0997L115.584 13.3147H117.658L114.317 16.926L117.856 21.4181H115.678L113.098 18.2334L113.095 18.2395Z" fill="black"/>
<path d="M117.889 17.3708C117.889 14.9632 119.757 13.1804 122.301 13.1804C124.845 13.1804 126.713 14.951 126.713 17.3708C126.713 19.7905 124.836 21.5611 122.301 21.5611C119.766 21.5611 117.889 19.7783 117.889 17.3708ZM124.824 17.3708C124.824 15.8318 123.741 14.7773 122.301 14.7773C120.86 14.7773 119.778 15.8318 119.778 17.3708C119.778 18.9098 120.86 19.9642 122.301 19.9642C123.741 19.9642 124.824 18.9098 124.824 17.3708Z" fill="black"/>
<path d="M135.519 13.3176V21.424H133.988L129.967 16.5023V21.424H128.123V13.3176H129.667L133.675 18.2394V13.3176H135.519Z" fill="black"/>
<path d="M139.104 14.8475H136.523V13.3176H143.553V14.8475H140.972V21.424H139.107V14.8475H139.104Z" fill="black"/>
<path d="M149.693 21.424L148.137 19.1658H146.421V21.424H144.553V13.3176H148.043C150.196 13.3176 151.546 14.4422 151.546 16.2585C151.546 17.4745 150.936 18.3643 149.887 18.8184L151.694 21.424H149.69H149.693ZM147.943 14.8475H146.421V17.6725H147.943C149.083 17.6725 149.659 17.1392 149.659 16.2585C149.659 15.3778 149.083 14.8444 147.943 14.8444V14.8475Z" fill="black"/>
<path d="M152.516 17.3708C152.516 14.9632 154.384 13.1804 156.928 13.1804C159.472 13.1804 161.34 14.951 161.34 17.3708C161.34 19.7905 159.463 21.5611 156.928 21.5611C154.393 21.5611 152.516 19.7783 152.516 17.3708ZM159.451 17.3708C159.451 15.8318 158.368 14.7773 156.928 14.7773C155.487 14.7773 154.405 15.8318 154.405 17.3708C154.405 18.9098 155.487 19.9642 156.928 19.9642C158.368 19.9642 159.451 18.9098 159.451 17.3708Z" fill="black"/>
<path d="M162.748 13.3177H164.616V19.8943H168.661V21.4211H162.751V13.3147L162.748 13.3177Z" fill="black"/>
<path d="M169.707 13.3177H171.575V19.8943H175.62V21.4211H169.71V13.3147L169.707 13.3177Z" fill="black"/>
<path d="M182.914 19.9186V21.424H176.67V13.3176H182.765V14.8231H178.526V16.5815H182.271V18.0413H178.526V19.9155H182.917L182.914 19.9186Z" fill="black"/>
<path d="M45.4326 29.3536H46.2422V30.9109C45.8207 31.2279 45.2446 31.3985 44.6957 31.3985C43.4948 31.3985 42.6094 30.5696 42.6094 29.4115C42.6094 28.2535 43.4948 27.4246 44.7109 27.4246C45.381 27.4246 45.939 27.6562 46.312 28.0889L45.7449 28.6161C45.4659 28.3205 45.1445 28.1834 44.7563 28.1834C44.0134 28.1834 43.507 28.6832 43.507 29.4115C43.507 30.1399 44.0134 30.6397 44.7472 30.6397C44.9868 30.6397 45.2112 30.597 45.4356 30.4751V29.3506L45.4326 29.3536Z" fill="#DD0000"/>
<path d="M51.2722 30.6185V31.3316H48.3125V27.4917H51.2024V28.2048H49.1919V29.0398H50.9659V29.7316H49.1919V30.6215H51.2722V30.6185Z" fill="#DD0000"/>
<path d="M52.9316 30.9537L53.2318 30.2833C53.5533 30.5179 54.0354 30.6825 54.4933 30.6825C55.018 30.6825 55.2302 30.5057 55.2302 30.2711C55.2302 29.5519 53.0075 30.0455 53.0075 28.6193C53.0075 27.9671 53.5321 27.4216 54.6177 27.4216C55.0968 27.4216 55.5911 27.5374 55.9459 27.763L55.673 28.4365C55.3182 28.2323 54.9512 28.1348 54.6146 28.1348C54.09 28.1348 53.8899 28.3328 53.8899 28.5736C53.8899 29.2806 56.1127 28.793 56.1127 30.204C56.1127 30.847 55.582 31.3956 54.4903 31.3956C53.8838 31.3956 53.2713 31.2158 52.9347 30.9507L52.9316 30.9537Z" fill="#DD0000"/>
<path d="M57.9375 29.6433V27.4917H58.823V29.6097C58.823 30.3381 59.1383 30.6398 59.6751 30.6398C60.2118 30.6398 60.5272 30.3381 60.5272 29.6097V27.4917H61.4005V29.6433C61.4005 30.7739 60.7577 31.3986 59.669 31.3986C58.5804 31.3986 57.9375 30.7739 57.9375 29.6433Z" fill="#DD0000"/>
<path d="M67.0318 27.4917V31.3316H66.307L64.4026 29.0002V31.3316H63.5293V27.4917H64.2601L66.1614 29.8231V27.4917H67.0348H67.0318Z" fill="#DD0000"/>
<path d="M69.1914 27.4917H70.929C72.1783 27.4917 73.0365 28.2475 73.0365 29.4116C73.0365 30.5758 72.1783 31.3316 70.929 31.3316H69.1914V27.4917ZM70.8835 30.6032C71.6416 30.6032 72.1389 30.1491 72.1389 29.4116C72.1389 28.6741 71.6416 28.2201 70.8835 28.2201H70.0738V30.6002H70.8835V30.6032Z" fill="#DD0000"/>
<path d="M78.4616 27.4917V31.3316H77.5762V29.756H75.8386V31.3316H74.9531V27.4917H75.8386V29.0063H77.5762V27.4917H78.4616Z" fill="#DD0000"/>
<path d="M83.5807 30.6185V31.3316H80.6211V27.4917H83.511V28.2048H81.5005V29.0398H83.2745V29.7316H81.5005V30.6215H83.5807V30.6185Z" fill="#DD0000"/>
<path d="M85.5391 27.4917H86.4245V31.3316H85.5391V27.4917Z" fill="#DD0000"/>
<path d="M89.3783 28.217H88.1562V27.4917H91.4859V28.217H90.2638V31.3346H89.3783V28.217Z" fill="#DD0000"/>
<path d="M92.8867 30.9537L93.1869 30.2833C93.5084 30.5179 93.9905 30.6825 94.4484 30.6825C94.973 30.6825 95.1853 30.5057 95.1853 30.2711C95.1853 29.5519 92.9625 30.0455 92.9625 28.6193C92.9625 27.9671 93.4871 27.4216 94.5727 27.4216C95.0519 27.4216 95.5462 27.5374 95.901 27.763L95.628 28.4365C95.2732 28.2323 94.9063 28.1348 94.5697 28.1348C94.0451 28.1348 93.845 28.3328 93.845 28.5736C93.845 29.2806 96.0677 28.793 96.0677 30.204C96.0677 30.847 95.5371 31.3956 94.4454 31.3956C93.8389 31.3956 93.2264 31.2158 92.8898 30.9507L92.8867 30.9537Z" fill="#DD0000"/>
<path d="M104.397 27.4917L102.742 31.3316H101.868L100.219 27.4917H101.174L102.335 30.2345L103.515 27.4917H104.394H104.397Z" fill="#DD0000"/>
<path d="M108.928 30.6185V31.3316H105.969V27.4917H108.859V28.2048H106.848V29.0398H108.622V29.7316H106.848V30.6215H108.928V30.6185Z" fill="#DD0000"/>
<path d="M113.322 31.3345L112.585 30.2648H111.772V31.3345H110.887V27.4946H112.542C113.564 27.4946 114.201 28.0279 114.201 28.8873C114.201 29.4633 113.913 29.8869 113.416 30.1003L114.274 31.3345H113.325H113.322ZM112.491 28.2169H111.769V29.5548H112.491C113.031 29.5548 113.304 29.3018 113.304 28.8843C113.304 28.4668 113.031 28.2138 112.491 28.2138V28.2169Z" fill="#DD0000"/>
<path d="M118.737 29.3536H119.547V30.9109C119.125 31.2279 118.549 31.3985 118 31.3985C116.8 31.3985 115.914 30.5696 115.914 29.4115C115.914 28.2535 116.8 27.4246 118.016 27.4246C118.686 27.4246 119.244 27.6562 119.617 28.0889L119.05 28.6161C118.771 28.3205 118.449 28.1834 118.061 28.1834C117.318 28.1834 116.812 28.6832 116.812 29.4115C116.812 30.1399 117.318 30.6397 118.052 30.6397C118.291 30.6397 118.516 30.597 118.74 30.4751V29.3506L118.737 29.3536Z" fill="#DD0000"/>
<path d="M121.619 27.4917H122.505V30.6093H124.421V31.3346H121.619V27.4947V27.4917Z" fill="#DD0000"/>
<path d="M129.13 30.6185V31.3316H126.17V27.4917H129.06V28.2048H127.049V29.0398H128.823V29.7316H127.049V30.6215H129.13V30.6185Z" fill="#DD0000"/>
<path d="M131.09 27.4917H131.975V31.3316H131.09V27.4917Z" fill="#DD0000"/>
<path d="M133.895 29.4115C133.895 28.2535 134.78 27.4246 135.969 27.4246C136.63 27.4246 137.182 27.6653 137.543 28.1042L136.975 28.6314C136.718 28.3358 136.396 28.1803 136.014 28.1803C135.299 28.1803 134.792 28.6862 134.792 29.4085C134.792 30.1308 135.299 30.6367 136.014 30.6367C136.396 30.6367 136.718 30.4843 136.975 30.1826L137.543 30.7098C137.182 31.1547 136.63 31.3955 135.966 31.3955C134.78 31.3955 133.898 30.5666 133.898 29.4085L133.895 29.4115Z" fill="#DD0000"/>
<path d="M142.897 27.4917V31.3316H142.012V29.756H140.274V31.3316H139.389V27.4917H140.274V29.0063H142.012V27.4917H142.897Z" fill="#DD0000"/>
<path d="M0.394432 13.4456C-0.199925 12.7325 -0.108952 11.672 0.597604 11.0716C1.30719 10.4743 2.36248 10.5657 2.95987 11.2758C2.96593 11.2819 5.14625 13.8449 7.17495 15.9751C7.23256 16.036 7.29927 16.1031 7.37205 16.1701C7.39934 16.1945 7.42664 16.2219 7.4509 16.2494C7.96641 16.7034 8.46373 16.8863 8.91253 16.8558C9.42501 16.8223 9.96478 16.5206 10.4833 16.0208C10.5895 15.9202 10.6622 15.844 10.7108 15.7953C15.2715 10.84 23.7078 0.633842 23.732 0.606415C24.3264 -0.109754 25.3877 -0.204227 26.1003 0.396135C26.813 0.99345 26.907 2.06008 26.3096 2.77625C26.2853 2.80368 17.9583 12.8818 13.1701 18.0901C13.0215 18.2516 12.8971 18.3826 12.8001 18.4741C11.7236 19.5102 10.4742 20.1441 9.13693 20.2355C7.80266 20.3269 6.45929 19.879 5.20387 18.7544C5.16748 18.727 5.13109 18.6965 5.0947 18.663C4.9825 18.5594 4.86423 18.4405 4.7399 18.3095C2.72031 16.1854 0.400496 13.4578 0.394432 13.4487V13.4456Z" fill="black"/>
<path d="M31.097 2.23067C31.7034 1.52669 32.7648 1.4505 33.4653 2.06001C34.1658 2.66951 34.2416 3.73615 33.6351 4.44012L21.0414 19.1231C20.4349 19.8271 19.3736 19.9033 18.6731 19.2938C17.9726 18.6843 17.8968 17.6176 18.5033 16.9136L31.097 2.23067Z" fill="#DD0000"/>
<path d="M30.7831 13.016C31.3866 12.309 32.448 12.2237 33.1515 12.8301C33.855 13.4366 33.9399 14.5032 33.3365 15.2103L25.1671 24.8191C24.5636 25.5261 23.5023 25.6115 22.7988 25.005C22.0952 24.3985 22.0103 23.335 22.6138 22.6249L30.7831 13.016Z" fill="#FFCE00"/>
<path d="M32.0188 22.1159C32.6222 21.4089 33.6805 21.3235 34.3871 21.93C35.0906 22.5365 35.1755 23.6031 34.5721 24.3101C33.9383 25.0568 33.3864 25.7303 32.8345 26.4038C28.6255 31.5419 24.2891 36.8415 16.6322 36.997C13.3511 37.064 10.3702 35.5951 7.86848 33.5472C4.3266 30.649 1.70961 26.5348 0.666458 24.2278C0.284372 23.3776 0.663425 22.378 1.50947 21.994C2.35552 21.61 3.35016 21.9909 3.73224 22.8412C4.63591 24.8434 6.9072 28.4151 9.98512 30.9324C11.935 32.5293 14.1941 33.6752 16.5625 33.6264C22.6758 33.5014 26.5149 28.8113 30.2387 24.2614C30.8573 23.5056 31.4759 22.7528 32.0188 22.1128V22.1159Z" fill="#FFCE00"/>
</svg>
